PathFileType	4	(X/Y/Z)	Patient4_TMGait_0pt3_02_left_26.trc.trc
DataRate	CameraRate	NumFrames	NumMarkers	Units	OrigDataRate	OrigDataStartFrame	OrigNumFrames
51.094890510949	51.094890510949	6	33	mm	51.094890510949	124	       141
Frame#	Time	Sacral			L.Shoulder			Chest			R.Shoulder			Neck			R.ASIS			L.ASIS			R.Thigh.Superior			R.Thigh.Lateral			R.Thigh.Inferior			R.Patella			L.Thigh.Superior			L.Thigh.Lateral			L.Thigh.Inferior			L.Patella			L.Shank.Superior			L.Shank.Lateral			L.Shank.Inferior			R.Shank.Superior			R.Shank.Lateral			R.Shank.Inferior			R.Heel			R.Midfoot.Superior			R.Midfoot.Lateral			R.Toe			L.Heel			L.Midfoot.Lateral			L.Midfoot.Superior			L.Toe			L.Elbow			L.Wrist			R.Elbow			R.Wrist			
		X1	Y1	Z1	X2	Y2	Z2	X3	Y3	Z3	X4	Y4	Z4	X5	Y5	Z5	X6	Y6	Z6	X7	Y7	Z7	X8	Y8	Z8	X9	Y9	Z9	X10	Y10	Z10	X11	Y11	Z11	X12	Y12	Z12	X13	Y13	Z13	X14	Y14	Z14	X15	Y15	Z15	X16	Y16	Z16	X17	Y17	Z17	X18	Y18	Z18	X19	Y19	Z19	X20	Y20	Z20	X21	Y21	Z21	X22	Y22	Z22	X23	Y23	Z23	X24	Y24	Z24	X25	Y25	Z25	X26	Y26	Z26	X27	Y27	Z27	X28	Y28	Z28	X29	Y29	Z29	X30	Y30	Z30	X31	Y31	Z31	X32	Y32	Z32	X33	Y33	Z33	

124	53.347285714286	751.227306890438	996.480147444150	556.407450232310	876.204590233042	1418.908655888799	335.215055310852	1017.523539823822	1352.181934194824	465.136842906701	985.008372431618	1433.304098764245	651.177021685846	903.696386881506	1484.582858855053	487.544308856641	995.722114935828	926.863304066914	627.734104168979	934.288159616074	954.079028145385	359.757969456837	1003.311462162793	718.659909483777	587.006511064711	915.181943188942	612.207636018978	650.499632500457	972.119206725334	557.634800249364	559.018723261985	959.011856598010	465.220147907470	561.226800291090	1014.599154984731	763.896564763501	385.246703365658	954.347740438780	636.622045294221	313.159158171895	1055.740068815500	575.103838652542	372.554374140424	1078.454256847050	512.463858633855	370.501547717683	1064.987733739396	441.780794247806	357.341636863214	1004.172262009514	312.015510824424	300.800354671227	1092.954861603520	213.855242705960	354.919144540626	910.815599239259	382.700295489118	566.608803445985	824.913546271394	290.905516481308	630.217737038429	839.348375685667	195.097748707875	558.918562852454	675.880579203434	45.151904134806	528.291688524836	848.212941412727	94.240899355920	561.624376729540	759.011871235683	37.400648985521	602.309264663984	967.317832680619	40.181116347776	592.396345247852	1008.754568068229	38.419282657467	385.400580732857	1086.869219965514	41.581815109740	309.227384834906	1158.886737088877	115.591250048998	335.275002384939	1292.509624396215	81.707384675477	315.599621639443	694.417651927838	1114.060406545659	276.616797121746	633.611798423168	862.722110109385	318.000802585245	1185.370526171092	1164.321221091176	760.395597922725	1410.754552906751	1244.123737480931	672.148498312046	
125	53.366857142857	752.063046712925	995.850782113629	553.981420525978	876.001997014713	1418.172611651467	332.052592543648	1017.916317808527	1351.461124213300	461.394691863347	985.959815808619	1432.674130386547	647.451824612489	904.001992061373	1483.837086715405	484.118979134983	996.861701809867	926.017539799225	624.857932787942	934.522279087321	953.150301762689	357.049608697490	1002.948740911036	717.497098376151	584.669378850880	913.927496809099	611.711562393979	648.554083142563	970.238979208634	556.459886533284	557.328906741471	956.207009122741	464.141169956871	559.804905515645	1014.143368407339	761.844500137625	382.267326608104	951.612333512108	634.580910927150	311.805707163392	1053.077230731483	573.063861500010	370.671763784708	1074.577044255390	510.035235610442	369.162075213542	1061.222074564285	439.137840621525	356.184420995422	999.373466710692	309.475393197537	300.817871081301	1087.712400764042	211.115396012625	355.172509147080	907.404207815460	381.970295716694	565.439064612593	820.826534396158	291.059839024973	629.490624572181	834.444102165790	194.896810451281	558.496664686701	670.090906824222	45.529683316314	528.350988557218	842.552136995695	94.332163975023	561.670403489731	753.218697673754	37.568988038196	602.349270152853	961.520748416720	40.031378462895	592.450682692147	1001.642493707586	37.658554707440	386.405158978738	1079.638817748103	39.768692160269	310.009406689260	1153.041683535671	112.126352410968	336.438683056498	1286.068349082578	75.629178889047	316.414441991970	694.576979270443	1113.315850505445	275.229329174950	634.964029028911	861.497673367499	317.848511515639	1191.118111011567	1167.826692085441	754.533567143312	1412.541609585729	1256.123011957154	664.761110551803	
126	53.386428571429	752.967904222494	995.332558205209	551.399483903492	875.982884436251	1417.457061475801	328.737843783880	1018.465969787683	1350.779754126335	457.542629401003	987.047557456391	1432.080010447946	643.626404213813	904.446235554648	1483.169807370135	480.540821007436	998.068235145206	925.198022285469	621.737359027930	934.775745042947	952.393617680265	354.130592639222	1002.728995205468	716.379122226987	582.081829118806	912.878753307392	611.241291322282	646.370882771597	968.587694251000	555.332077356038	555.391776586915	953.665280393726	463.082597870742	558.156983354241	1013.949426167373	760.274941659557	379.161471394043	949.556813301555	632.981288539086	310.188103172156	1051.172348163234	571.564720734627	368.554871154893	1071.455094887995	508.031297755655	367.544047685590	1058.176165890658	436.879724691573	354.784191589164	995.178549431428	307.382022995915	300.469001572738	1082.878182050944	208.678226215311	355.148501847240	904.199207892124	381.281506165720	564.100818979058	816.909141969246	291.329383476507	628.633077974163	829.655442484705	194.770963238968	558.013758219332	664.342648793386	46.080972967070	528.431664551586	837.022423363865	94.548711126803	561.849419018551	747.474887844688	37.834844997513	602.396119676550	955.772662888426	39.841404584173	592.511805531577	994.632580665576	37.212387846888	387.108137804735	1072.567034310437	38.188513801422	310.532451954082	1147.389638905302	108.903408492097	337.348587539980	1279.807563194138	69.729730436498	317.107957795382	696.010103886170	1111.770330390468	273.256255998451	638.527337329581	859.229265455824	316.553477087871	1196.003097520909	1170.630148028772	748.842858340305	1413.860149290188	1266.031525907003	657.843262542439	
127	53.406000000000	753.936998307086	995.005746077337	548.659300281470	876.113163832663	1416.839473259630	325.290709582675	1019.152009556422	1350.208452975774	453.580906422196	988.283563447933	1431.599079811156	639.703210347682	905.018269959434	1482.648148369728	476.834803555277	999.298776298793	924.472280843594	618.365751352414	935.056409812632	951.888224238582	350.989631008894	1002.552649840708	715.350162756679	579.262014139459	911.921525708936	610.864925054811	643.986009741008	967.038143574993	554.305748098792	553.240847335867	951.252414375215	462.105909788575	556.319106171877	1014.062832357480	759.307043681181	375.998098688511	948.310371587556	631.912335799710	308.309395417881	1050.107962926423	570.663935692530	366.241440564234	1069.193221450948	506.522593057400	365.699940082173	1055.934689995072	435.081892985217	353.197490256290	991.724030285663	305.828494670276	299.734285239880	1078.543111462492	206.647269216484	354.886121200240	901.102520014632	380.696047838368	562.630945417087	813.086056566080	291.751637442437	627.666722553901	824.946730194462	194.765759514709	557.490565844725	658.631482308587	46.843517765334	528.537414751801	831.613407494392	94.880721201805	562.136171640516	741.775276250973	38.220460266386	602.452564876630	950.065119098230	39.612538547914	592.576327777576	987.925300359834	37.041869849455	387.517000915230	1065.849724624595	36.918119278635	310.807736006994	1142.001920553235	106.127049271190	337.994194330944	1273.846268763592	64.453992330038	317.668111180714	698.502244838112	1109.618045214222	270.701114237679	644.107107120559	856.150965032512	314.046059786343	1200.103351726036	1172.797579548092	743.359230080472	1414.917038138092	1273.913013569418	651.377492104637	
128	53.425571428571	754.964433930983	994.917910408240	545.735152856614	876.367219066849	1416.374391347726	321.718706360230	1019.947622566054	1349.801694036322	449.514524586409	989.644309916751	1431.289447055226	635.685110904285	905.696803849417	1482.317024075007	473.014923064177	1000.509864325877	923.896602775216	614.758059125427	935.402075340099	951.674707262311	347.627538067625	1002.337918111021	714.447313791707	576.251798221104	910.957997107533	610.640248527014	641.446504637520	965.494926540086	553.425692829260	550.929335213485	948.869501189578	461.257743050958	554.346342455658	1014.526824002887	758.982248546895	372.849243023426	947.934973355790	631.390646911432	306.203387169705	1049.895311666160	570.337017776039	363.795511144832	1067.824990010272	505.504516989250	363.715400755142	1054.496982163129	433.744658767938	351.508958476692	989.033406184469	304.838354009492	298.646878826180	1074.683193358321	205.050835512578	354.461097957364	898.040643724569	380.262598958678	561.075085021325	809.295340840129	292.358202936614	626.617946446335	820.288303496168	194.920266989094	556.949977117650	652.950873721223	47.857481632041	528.668102154619	826.300369608230	95.304735319034	562.485381488355	736.108496936222	38.749346057642	602.519176408521	944.379816433703	39.348053914945	592.639955195878	981.578582840886	37.080530049063	387.673925747682	1059.531657693778	35.986590589182	310.873395065002	1136.834743123576	103.910536976071	338.402363087575	1268.175355859100	60.092195166363	318.092489166811	701.840786095421	1107.060680409343	267.565902688470	651.522459710115	852.512506135270	310.282138831398	1203.487730845198	1174.408126578748	738.094980737107	1415.889248168019	1279.835737440146	645.341987240238	
129	53.445142857143	756.043820719523	995.080971008024	542.582316301202	876.732735232798	1416.089529352792	318.015028236084	1020.823426680897	1349.594514483306	445.354378798864	991.071243482273	1431.187540854637	631.575975457733	906.451721867646	1482.197226778152	469.082860125092	1001.663284096177	923.512141965837	610.952182436898	935.876440876403	951.752651915745	344.060185576809	1002.036283514518	713.698907090531	573.114912198695	909.922654411349	610.608843180251	638.805368048566	963.912768730924	552.722645497854	548.525677733715	946.473038319695	460.564921890028	552.309095491919	1015.366309644412	759.251793516279	369.776591136398	948.403904915524	631.359884548577	303.922845938959	1050.461848021622	570.483695117796	361.296565989915	1067.301459652054	504.907553866356	361.692151202293	1053.780051901123	432.806041560879	349.810146614310	987.033065353464	304.366710841426	297.280424233555	1071.196937005055	203.853875590219	353.963900157258	894.978398932671	380.011637053999	559.483554779958	805.499639895706	293.173976559433	625.514834930877	815.663153126405	195.265276938253	556.415096410852	647.293839411900	49.166684754129	528.819618580395	821.051165993468	95.791015013790	562.843506187059	730.458343318304	39.447300961561	602.593878756082	938.689276639441	39.052977086170	592.697945174627	975.548768175881	37.252377994553	387.640916113676	1053.553671935966	35.379691034034	310.783939479441	1131.781469754735	102.276528510859	338.626603307364	1262.707920132876	56.764653513998	318.393107382678	705.840620631936	1104.284889551633	263.844135949088	660.613929149053	848.558357822385	305.245103511213	1206.203710293048	1175.541440314348	733.040535384458	1416.912715589476	1283.860195386852	639.716826691447	
